<svg width="29" height="31" viewBox="0 0 29 31" fill="none" xmlns="http://www.w3.org/2000/svg">
<path id="Vector" d="M1.78836 13.0639L0.0209315 26.7605L2.27906 26.9777L4.04649 13.2791L1.78836 13.0639ZM3.40813 30.0203H25.5941V28.0636H3.40813V30.0203ZM28.9813 26.7605L27.2139 13.0639L24.9558 13.2791L26.7232 26.9777L28.9813 26.7605ZM23.8244 10.4537H5.17783V12.4103H23.829V10.4537H23.8244ZM27.2139 13.0639C27.1211 12.3461 26.7243 11.6829 26.0993 11.2013C25.4744 10.7198 24.663 10.4536 23.8244 10.4537L23.8267 12.4103C24.1063 12.4103 24.3762 12.4991 24.5845 12.6598C24.7928 12.8205 24.925 13.0417 24.9558 13.281L27.2139 13.0639ZM25.5941 30.0203C26.0733 30.0201 26.547 29.9328 26.9844 29.7642C27.4218 29.5957 27.8129 29.3495 28.1324 29.0419C28.4518 28.7343 28.6923 28.3721 28.8382 27.979C28.9841 27.5859 29.0344 27.1707 28.9813 26.7605L26.7232 26.9777C26.7411 27.1146 26.7253 27.2512 26.6767 27.3825C26.6281 27.5137 26.5479 27.6346 26.4413 27.7373C26.3348 27.84 26.2042 27.9222 26.0582 27.9784C25.9122 28.0346 25.7541 28.0637 25.5941 28.0636V30.0203ZM0.0209315 26.7605C-0.0321173 27.1708 0.0159446 27.5862 0.161978 27.9794C0.308011 28.3727 0.548729 28.735 0.868406 29.0426C1.18808 29.3503 1.57952 29.5964 2.01716 29.7648C2.45479 29.9333 2.92877 30.0204 3.40813 30.0203V28.0636C3.24841 28.0637 3.09049 28.0347 2.94467 27.9785C2.79885 27.9224 2.66841 27.8404 2.56186 27.738C2.45532 27.6355 2.37506 27.5148 2.32633 27.3838C2.2776 27.2528 2.26149 27.1144 2.27906 26.9777L0.0209315 26.7625V26.7605ZM4.04649 13.2791C4.07777 13.0401 4.2102 12.8193 4.41847 12.6591C4.62675 12.4988 4.89855 12.4103 5.17783 12.4103V10.4537C4.33967 10.454 3.5288 10.7205 2.90435 11.202C2.27989 11.6835 1.88112 12.3464 1.78836 13.0639L4.04649 13.2791ZM8.82173 8.497V7.51867H6.54997V8.497H8.82173ZM20.1805 7.51867V8.497H22.4523V7.51867H20.1805ZM14.5011 2.62701C16.0074 2.62701 17.452 3.14238 18.5171 4.05975C19.5822 4.97711 20.1805 6.22132 20.1805 7.51867H22.4523C22.4523 5.70238 21.6146 3.96049 20.1235 2.67618C18.6323 1.39187 16.6099 0.670349 14.5011 0.670349V2.62701ZM8.82173 7.51867C8.82173 6.22132 9.4201 4.97711 10.4852 4.05975C11.5503 3.14238 12.9949 2.62701 14.5011 2.62701V0.670349C12.3924 0.670349 10.3699 1.39187 8.87881 2.67618C7.38768 3.96049 6.54997 5.70238 6.54997 7.51867H8.82173Z" fill="#FF4E6F" fill-opacity="0.831373"/>
</svg>
