<svg width="189" height="162" viewBox="0 0 189 162" fill="none" xmlns="http://www.w3.org/2000/svg">
<path id="Vector" d="M85.3763 124.205C85.3763 114.086 82.7792 105.598 77.5851 98.71C73.904 93.972 68.9131 90.8555 62.601 89.372C56.3906 87.9 50.5189 87.7965 45.2119 89.05C43.4052 78.125 46.341 66.556 53.7935 54.297C61.246 42.0495 70.9004 32.8265 82.6776 26.6625L64.8255 0.5C55.7921 5.054 47.2105 10.827 39.3063 17.8075C31.2892 24.788 24.1755 32.815 17.8521 41.8885C11.5288 50.962 6.78631 61.2085 3.73756 72.8235C0.688813 84.4385 -0.15806 96.2835 1.29856 108.473C3.19556 124.574 8.2994 137.454 16.6101 146.999C24.9094 156.67 35.2639 161.5 47.6396 161.5C58.536 161.5 67.5806 158.165 74.7396 151.403C81.8307 144.779 85.3537 135.705 85.3537 124.171L85.3763 124.205ZM188.401 124.205C188.401 114.086 185.804 105.598 180.61 98.71C176.929 93.88 171.916 90.752 165.626 89.3145C159.303 87.8885 153.51 87.8195 148.237 89.0615C146.43 78.2515 149.253 66.6365 156.728 54.3315C164.181 42.1415 173.813 32.9415 185.59 26.7315L167.783 0.5C158.75 5.054 150.224 10.827 142.264 17.8075C134.174 24.8914 126.989 32.9817 120.877 41.8885C114.599 50.9735 109.924 61.2085 106.876 72.8235C103.791 84.4316 102.959 96.5409 104.425 108.473C106.3 124.574 111.381 137.454 119.669 146.999C127.946 156.59 138.266 161.396 150.642 161.396C161.561 161.396 170.606 158.062 177.765 151.311C184.845 144.687 188.401 135.614 188.401 124.079V124.205Z" fill="#fff"/>
</svg>
