<svg width="29" height="31" viewBox="0 0 29 31" fill="none" xmlns="http://www.w3.org/2000/svg">
<path id="Vector" d="M27.7503 30.0203L16.6658 18.8034C15.7807 19.5665 14.7629 20.157 13.6123 20.5749C12.4617 20.9929 11.3052 21.2019 10.1428 21.2019C7.30827 21.2019 4.90915 20.2089 2.94549 18.223C0.981831 16.2359 0 13.8087 0 10.9415C0 8.07427 0.98065 5.6459 2.94195 3.6564C4.90443 1.6657 7.30237 0.670349 10.1358 0.670349C12.9703 0.670349 15.3706 1.66391 17.3366 3.65102C19.3027 5.63814 20.2857 8.0665 20.2857 10.9361C20.2857 12.1805 20.0679 13.3848 19.6325 14.5491C19.1959 15.7134 18.6235 16.7094 17.9155 17.537L29 28.7521L27.7485 30.0203H27.7503ZM10.1428 19.4088C12.4912 19.4088 14.4743 18.5908 16.0922 16.9548C17.7089 15.3188 18.5173 13.3119 18.5173 10.9343C18.5173 8.55791 17.7089 6.55169 16.0922 4.91566C14.4755 3.27963 12.493 2.46162 10.1446 2.46162C7.79623 2.46162 5.8131 3.27963 4.1952 4.91566C2.57849 6.55169 1.77013 8.55791 1.77013 10.9343C1.77013 13.3107 2.57849 15.317 4.1952 16.953C5.81192 18.589 7.79446 19.4088 10.1428 19.4088Z" fill="#FF4E6F" fill-opacity="0.831373"/>
</svg>
